<svg width="95" height="65" viewBox="0 0 95 65" fill="none" xmlns="http://www.w3.org/2000/svg">
<circle r="32.4998" transform="matrix(1 0 0 -1 32.4998 32.4997)" fill="url(#paint0_linear)"/>
<path d="M48.9158 36.5095H36.66V48.7653C36.66 50.2692 35.4404 51.4888 33.9365 51.4888H31.213C29.7091 51.4888 28.4895 50.2692 28.4895 48.7653V36.5095H16.2338C14.7299 36.5095 13.5103 35.2899 13.5103 33.786V31.0625C13.5103 29.5586 14.7299 28.339 16.2338 28.339H28.4895V16.0832C28.4895 14.5793 29.7091 13.3597 31.213 13.3597H33.9365C35.4404 13.3597 36.66 14.5793 36.66 16.0832V28.339H48.9158C50.4197 28.339 51.6393 29.5586 51.6393 31.0625V33.786C51.6393 35.2899 50.4197 36.5095 48.9158 36.5095Z" fill="url(#paint1_linear)"/>
<path d="M53.1498 26.2079H55.3206L58.5351 35.6684L61.7267 26.2079H63.8747V37.3975H62.435V30.7934C62.435 30.5649 62.4401 30.1866 62.4503 29.6585C62.4604 29.1303 62.4655 28.5641 62.4655 27.9598L59.2739 37.3975H57.7734L54.5589 27.9598V28.3026C54.5589 28.5768 54.564 28.9958 54.5742 29.5594C54.5894 30.118 54.597 30.5293 54.597 30.7934V37.3975H53.1498V26.2079ZM69.3971 29.0567C69.976 29.0567 70.5371 29.1938 71.0805 29.468C71.6239 29.7372 72.0377 30.0876 72.3221 30.5192C72.5963 30.9305 72.7791 31.4104 72.8705 31.9588C72.9518 32.3346 72.9924 32.9338 72.9924 33.7565H67.0129C67.0383 34.5842 67.2338 35.2494 67.5995 35.7522C67.9651 36.2498 68.5313 36.4986 69.2981 36.4986C70.0141 36.4986 70.5854 36.2625 71.0119 35.7902C71.2557 35.516 71.4283 35.1986 71.5299 34.8381H72.8781C72.8426 35.1377 72.7233 35.4729 72.5201 35.8436C72.3221 36.2092 72.0987 36.5088 71.8498 36.7424C71.4334 37.1486 70.918 37.4229 70.3035 37.565C69.9735 37.6463 69.6002 37.6869 69.1838 37.6869C68.1682 37.6869 67.3075 37.3188 66.6016 36.5824C65.8958 35.841 65.5428 34.8051 65.5428 33.4746C65.5428 32.1645 65.8983 31.1006 66.6092 30.2831C67.3202 29.4655 68.2495 29.0567 69.3971 29.0567ZM71.5832 32.6672C71.5274 32.0731 71.3979 31.5983 71.1948 31.2428C70.819 30.5827 70.1918 30.2526 69.3133 30.2526C68.6836 30.2526 68.1555 30.4811 67.729 30.9381C67.3024 31.3901 67.0764 31.9664 67.051 32.6672H71.5832ZM75.5518 33.4137C75.5518 34.2871 75.7371 35.0184 76.1078 35.6074C76.4785 36.1965 77.0726 36.491 77.8902 36.491C78.525 36.491 79.0455 36.2193 79.4517 35.676C79.8631 35.1276 80.0687 34.343 80.0687 33.3223C80.0687 32.2914 79.858 31.5297 79.4365 31.0372C79.015 30.5395 78.4945 30.2907 77.875 30.2907C77.1844 30.2907 76.6232 30.5547 76.1916 31.0829C75.765 31.611 75.5518 32.3879 75.5518 33.4137ZM77.616 29.0948C78.2406 29.0948 78.7636 29.2268 79.1851 29.4909C79.4289 29.6432 79.7056 29.9098 80.0154 30.2907V26.1698H81.3332V37.3975H80.0992V36.2625C79.7793 36.7652 79.4009 37.1283 78.9642 37.3518C78.5275 37.5752 78.0273 37.6869 77.4637 37.6869C76.5547 37.6869 75.7676 37.3061 75.1023 36.5443C74.4371 35.7776 74.1045 34.7594 74.1045 33.4899C74.1045 32.3016 74.4066 31.2733 75.0109 30.4049C75.6203 29.5315 76.4887 29.0948 77.616 29.0948ZM83.3669 29.2776H84.7609V37.3975H83.3669V29.2776ZM83.3669 26.2079H84.7609V27.7618H83.3669V26.2079ZM86.8099 26.2079H88.1276V32.7053L91.6468 29.2395H93.3987L90.2757 32.294L93.5739 37.3975H91.822L89.2778 33.2842L88.1276 34.3354V37.3975H86.8099V26.2079Z" fill="#0000FF"/>
<path d="M9.60266 29.0567C10.1816 29.0567 10.7427 29.1938 11.286 29.468C11.8294 29.7372 12.2433 30.0876 12.5276 30.5192C12.8019 30.9305 12.9847 31.4104 13.0761 31.9588C13.1573 32.3346 13.1979 32.9338 13.1979 33.7565H7.21849C7.24388 34.5842 7.43939 35.2494 7.80501 35.7522C8.17063 36.2498 8.73684 36.4986 9.50363 36.4986C10.2196 36.4986 10.7909 36.2625 11.2175 35.7902C11.4612 35.516 11.6339 35.1986 11.7355 34.8381H13.0837C13.0481 35.1377 12.9288 35.4729 12.7257 35.8436C12.5276 36.2092 12.3042 36.5088 12.0554 36.7424C11.639 37.1486 11.1235 37.4229 10.5091 37.565C10.179 37.6463 9.80578 37.6869 9.38938 37.6869C8.37376 37.6869 7.51302 37.3188 6.80717 36.5824C6.10131 35.841 5.74838 34.8051 5.74838 33.4746C5.74838 32.1645 6.10385 31.1006 6.81478 30.2831C7.52572 29.4655 8.45501 29.0567 9.60266 29.0567ZM11.7888 32.6672C11.7329 32.0731 11.6034 31.5983 11.4003 31.2428C11.0245 30.5827 10.3974 30.2526 9.51887 30.2526C8.88918 30.2526 8.36106 30.4811 7.9345 30.9381C7.50794 31.3901 7.28197 31.9664 7.25658 32.6672H11.7888Z" fill="#0000FF"/>
<defs>
<linearGradient id="paint0_linear" x1="32.4998" y1="32.4998" x2="28.5998" y2="37.0497" gradientUnits="userSpaceOnUse">
<stop stop-color="white"/>
<stop offset="1" stop-color="#FF0000"/>
</linearGradient>
<linearGradient id="paint1_linear" x1="24.6997" y1="16.8994" x2="51.9996" y2="41.5992" gradientUnits="userSpaceOnUse">
<stop offset="0.291053" stop-color="white"/>
<stop offset="0.567334" stop-color="#FF0000"/>
</linearGradient>
</defs>
</svg>
